# Blender 4.0.1
# www.blender.org
o Arena
v 8.293703 0.032732 13.888678
v 8.293703 2.036516 13.888678
v 9.397184 0.032732 13.151355
v 9.397184 2.036516 13.151355
v 10.134507 0.032732 12.047873
v 10.393419 0.032732 10.746230
v 10.393419 2.036516 10.746230
v 10.134507 2.036516 12.047873
v -6.532984 2.036516 13.218711
v -9.711024 2.036516 10.040670
v -7.749167 2.036516 12.976795
v -8.780198 2.036516 12.287883
v -9.469110 2.036516 11.256852
v 9.711024 2.036516 10.040670
v 6.532984 2.036516 13.218711
v 9.469110 2.036516 11.256852
v 8.780198 2.036516 12.287883
v 7.749167 2.036516 12.976795
v -9.711024 2.036516 -10.040670
v -6.532984 2.036516 -13.218711
v -9.469110 2.036516 -11.256852
v -8.780198 2.036516 -12.287883
v -7.749167 2.036516 -12.976795
v 6.532984 2.036516 -13.218711
v 9.711024 2.036516 -10.040670
v 7.749167 2.036516 -12.976795
v 8.780198 2.036516 -12.287883
v 9.469110 2.036516 -11.256852
v -6.532984 0.032732 -13.218711
v -9.711024 0.032732 -10.040670
v -7.749167 0.032732 -12.976795
v -8.780198 0.032732 -12.287883
v -9.469110 0.032732 -11.256852
v -9.711024 0.032732 10.040670
v -6.532984 0.032732 13.218711
v -9.469110 0.032732 11.256852
v -8.780198 0.032732 12.287883
v -7.749167 0.032732 12.976795
v 6.532984 0.032732 13.218711
v 9.711024 0.032732 10.040670
v 7.749167 0.032732 12.976795
v 8.780198 0.032732 12.287883
v 9.469110 0.032732 11.256852
v 9.711024 0.032732 -10.040670
v 6.532984 0.032732 -13.218711
v 9.469110 0.032732 -11.256852
v 8.780198 0.032732 -12.287883
v 7.749167 0.032732 -12.976795
v 6.992058 2.036516 14.147592
v 6.992058 0.032732 14.147592
v -10.134507 0.032732 12.047873
v -10.393419 0.032732 10.746230
v -10.393419 2.036516 10.746230
v -10.134507 2.036516 12.047873
v -9.397184 0.032732 13.151355
v -9.397184 2.036516 13.151355
v -8.293703 0.032732 13.888678
v -8.293703 2.036516 13.888678
v -6.992058 0.032732 14.147592
v -6.992058 2.036516 14.147592
v 8.293703 2.036516 -13.888678
v 6.992058 2.036516 -14.147592
v 6.992058 0.032732 -14.147592
v 8.293703 0.032732 -13.888678
v 9.397184 2.036516 -13.151355
v 9.397184 0.032732 -13.151355
v 10.134507 2.036516 -12.047873
v 10.134507 0.032732 -12.047873
v 10.393419 2.036516 -10.746230
v 10.393419 0.032732 -10.746230
v -8.293703 0.032732 -13.888678
v -6.992058 0.032732 -14.147592
v -6.992058 2.036516 -14.147592
v -8.293703 2.036516 -13.888678
v -9.397184 0.032732 -13.151355
v -9.397184 2.036516 -13.151355
v -10.134507 0.032732 -12.047873
v -10.134507 2.036516 -12.047873
v -10.393419 0.032732 -10.746230
v -10.393419 2.036516 -10.746230
vn -1.0000 -0.0000 -0.0000
vn -0.0000 -1.0000 -0.0000
vn -0.0000 1.0000 -0.0000
vn -0.0000 -0.0000 1.0000
vn -0.0000 -0.0000 -1.0000
vn -0.9808 -0.0000 -0.1951
vn -0.8315 -0.0000 -0.5556
vn -0.5556 -0.0000 -0.8315
vn -0.1951 -0.0000 -0.9808
vn 0.9808 -0.0000 -0.1951
vn 0.8315 -0.0000 -0.5556
vn 0.5556 -0.0000 -0.8315
vn 0.1951 -0.0000 -0.9808
vn -0.1951 -0.0000 0.9808
vn -0.5556 -0.0000 0.8315
vn -0.8315 -0.0000 0.5556
vn -0.9808 -0.0000 0.1951
vn 0.1951 -0.0000 0.9808
vn 0.5556 -0.0000 0.8315
vn 0.8315 -0.0000 0.5556
vn 0.9808 -0.0000 0.1951
vn 1.0000 -0.0000 -0.0000
vt 1.000000 0.120210
vt 1.000000 0.879790
vt 1.000000 0.120210
vt 0.000000 0.000000
vt 0.101012 0.996950
vt 0.163631 1.000000
vt 0.000000 0.120210
vt 0.004152 0.074208
vt 0.015975 0.011736
vt 0.101012 0.003050
vt 0.163631 0.000000
vt 0.836369 0.000000
vt 0.898988 0.003050
vt 0.984025 0.011736
vt 0.995848 0.074208
vt 0.995848 0.925792
vt 0.984025 0.988264
vt 0.898988 0.996950
vt 0.836369 1.000000
vt 0.015975 0.988264
vt 0.004152 0.925792
vt 0.000000 0.879790
vt 1.000000 0.074208
vt 1.000000 0.000000
vt 0.898988 0.000000
vt 0.000000 0.120210
vt 0.000000 0.074208
vt 0.101012 0.000000
vt 0.898988 1.000000
vt 1.000000 1.000000
vt 1.000000 0.925792
vt 0.101012 1.000000
vt 0.000000 1.000000
vt 0.000000 0.925792
s 0
f 7/1/1 69/2/1 70/2/1 6/3/1
f 26/4/2 24/4/2 62/4/2 61/4/2
f 31/5/3 29/6/3 72/6/3 71/5/3
f 19/4/2 10/4/2 53/4/2 80/4/2
f 34/7/3 36/8/3 37/9/3 38/10/3 35/11/3 39/12/3 41/13/3 42/14/3 43/15/3 40/1/3 44/2/3 46/16/3 47/17/3 48/18/3 45/19/3 29/6/3 31/5/3 32/20/3 33/21/3 30/22/3
f 41/13/3 39/12/3 50/12/3 1/13/3
f 11/4/2 9/4/2 60/4/2 58/4/2
f 46/16/3 44/2/3 70/2/3 68/16/3
f 15/4/2 18/4/2 2/4/2 49/4/2
f 21/4/2 19/4/2 80/4/2 78/4/2
f 35/11/3 38/10/3 57/10/3 59/11/3
f 25/4/2 28/4/2 67/4/2 69/4/2
f 30/22/3 33/21/3 77/21/3 79/22/3
f 42/14/3 41/13/3 1/13/3 3/14/3
f 12/4/2 11/4/2 58/4/2 56/4/2
f 47/17/3 46/16/3 68/16/3 66/17/3
f 18/4/2 17/4/2 4/4/2 2/4/2
f 22/4/2 21/4/2 78/4/2 76/4/2
f 38/10/3 37/9/3 55/9/3 57/10/3
f 28/4/2 27/4/2 65/4/2 67/4/2
f 33/21/3 32/20/3 75/20/3 77/21/3
f 29/6/3 45/19/3 63/19/3 72/6/3
f 62/19/4 73/6/4 72/6/4 63/19/4
f 60/11/5 49/12/5 50/12/5 59/11/5
f 7/1/6 6/3/6 5/15/6 8/23/6
f 8/23/7 5/15/7 3/14/7 4/24/7
f 4/24/8 3/14/8 1/13/8 2/25/8
f 2/25/9 1/13/9 50/12/9 49/12/9
f 52/26/10 53/7/10 54/27/10 51/8/10
f 51/8/11 54/27/11 56/4/11 55/9/11
f 55/9/12 56/4/12 58/28/12 57/10/12
f 57/10/13 58/28/13 60/11/13 59/11/13
f 62/19/14 63/19/14 64/18/14 61/29/14
f 61/29/15 64/18/15 66/17/15 65/30/15
f 65/30/16 66/17/16 68/16/16 67/31/16
f 67/31/17 68/16/17 70/2/17 69/2/17
f 72/6/18 73/6/18 74/32/18 71/5/18
f 71/5/19 74/32/19 76/33/19 75/20/19
f 75/20/20 76/33/20 78/34/20 77/21/20
f 77/21/21 78/34/21 80/22/21 79/22/21
f 80/22/22 53/7/22 52/26/22 79/22/22
f 34/7/3 30/22/3 79/22/3 52/7/3
f 36/8/3 34/7/3 52/7/3 51/8/3
f 16/4/2 14/4/2 7/4/2 8/4/2
f 9/4/2 15/4/2 49/4/2 60/4/2
f 20/4/2 23/4/2 74/4/2 73/4/2
f 45/19/3 48/18/3 64/18/3 63/19/3
f 39/12/3 35/11/3 59/11/3 50/12/3
f 10/4/2 13/4/2 54/4/2 53/4/2
f 40/1/3 43/15/3 5/15/3 6/1/3
f 14/4/2 25/4/2 69/4/2 7/4/2
f 32/20/3 31/5/3 71/5/3 75/20/3
f 27/4/2 26/4/2 61/4/2 65/4/2
f 44/2/3 40/1/3 6/1/3 70/2/3
f 37/9/3 36/8/3 51/8/3 55/9/3
f 23/4/2 22/4/2 76/4/2 74/4/2
f 17/4/2 16/4/2 8/4/2 4/4/2
f 48/18/3 47/17/3 66/17/3 64/18/3
f 24/4/2 20/4/2 73/4/2 62/4/2
f 13/4/2 12/4/2 56/4/2 54/4/2
f 43/15/3 42/14/3 3/14/3 5/15/3
